<svg version="1.1" viewBox="0.000000 0.000000 469.333000 469.333000" xmlns="http://www.w3.org/2000/svg" xmlns:xlink="http://www.w3.org/1999/xlink" id="Capa_1" overflow="hidden"><g><g><path d=" M 426.666992 0.000000 L 42.667000 0.000000 C 19.146000 0.000000 0.000000 19.135000 0.000000 42.667000 L 0.000000 426.666992 C 0.000000 450.197998 19.146000 469.334015 42.667000 469.334015 L 426.666992 469.334015 C 450.187988 469.334015 469.334015 450.199005 469.334015 426.666992 L 469.334015 42.667000 C 469.333008 19.135000 450.187988 0.000000 426.666992 0.000000 Z M 149.332993 394.666992 C 149.332993 400.562988 144.561996 405.334015 138.666000 405.334015 L 74.666000 405.334015 C 68.769997 405.334015 63.999001 400.562988 63.999001 394.666992 L 63.999001 160.000000 C 63.999001 154.104004 68.769997 149.332993 74.666000 149.332993 L 138.666000 149.332993 C 144.561996 149.332993 149.332993 154.104004 149.332993 160.000000 L 149.332993 394.666992 Z M 277.333008 394.666992 C 277.333008 400.562988 272.562012 405.334015 266.665985 405.334015 L 202.666000 405.334015 C 196.770004 405.334015 191.998993 400.562988 191.998993 394.666992 L 191.998993 74.667000 C 192.000000 68.771004 196.770996 64.000000 202.667007 64.000000 L 266.666992 64.000000 C 272.562988 64.000000 277.334015 68.771004 277.334015 74.667000 L 277.334015 394.666992 Z M 405.333008 394.666992 C 405.333008 400.562988 400.562012 405.334015 394.665985 405.334015 L 330.665985 405.334015 C 324.769989 405.334015 319.998993 400.562988 319.998993 394.666992 L 319.998993 245.332993 C 319.998993 239.436996 324.769989 234.666000 330.665985 234.666000 L 394.665985 234.666000 C 400.562012 234.666000 405.333008 239.436996 405.333008 245.332993 L 405.333008 394.666992 Z"/></g></g><g></g><g></g><g></g><g></g><g></g><g></g><g></g><g></g><g></g><g></g><g></g><g></g><g></g><g></g><g></g></svg>